<?xml version="1.0" encoding="UTF-8" standalone="no"?>
<!DOCTYPE svg PUBLIC "-//W3C//DTD SVG 1.1//EN"
 "http://www.w3.org/Graphics/SVG/1.1/DTD/svg11.dtd">
<!-- Generated by graphviz version 2.47.0 (20210316.0004)
 -->
<!-- Title: dependencies Pages: 1 -->
<svg width="2063pt" height="428pt"
 viewBox="0.00 0.00 2063.00 428.00" xmlns="http://www.w3.org/2000/svg" xmlns:xlink="http://www.w3.org/1999/xlink">
<g id="graph0" class="graph" transform="scale(1 1) rotate(0) translate(4 424)">
<title>dependencies</title>
<polygon fill="white" stroke="transparent" points="-4,4 -4,-424 2059,-424 2059,4 -4,4"/>
<text text-anchor="start" x="1006.51" y="-42.4" font-family="sans-serif" font-weight="bold" font-size="14.00">Legend</text>
<polygon fill="#ffffb3" stroke="transparent" points="793.5,-10 793.5,-30 813.5,-30 813.5,-10 793.5,-10"/>
<text text-anchor="start" x="817.13" y="-15.4" font-family="sans-serif" font-size="14.00"> &#160;Declarations</text>
<polygon fill="#8dd3c7" stroke="transparent" points="906.5,-10 906.5,-30 926.5,-30 926.5,-10 906.5,-10"/>
<text text-anchor="start" x="930.23" y="-15.4" font-family="sans-serif" font-size="14.00"> &#160;Module</text>
<polygon fill="#80b1d3" stroke="transparent" points="992.5,-10 992.5,-30 1012.5,-30 1012.5,-10 992.5,-10"/>
<text text-anchor="start" x="1016.28" y="-15.4" font-family="sans-serif" font-size="14.00"> &#160;Bootstrap</text>
<polygon fill="#fdb462" stroke="transparent" points="1089.5,-10 1089.5,-30 1109.5,-30 1109.5,-10 1089.5,-10"/>
<text text-anchor="start" x="1113.17" y="-15.4" font-family="sans-serif" font-size="14.00"> &#160;Providers</text>
<polygon fill="#fb8072" stroke="transparent" points="1185.5,-10 1185.5,-30 1205.5,-30 1205.5,-10 1185.5,-10"/>
<text text-anchor="start" x="1209.23" y="-15.4" font-family="sans-serif" font-size="14.00"> &#160;Exports</text>
<g id="clust1" class="cluster">
<title>cluster_AppModule</title>
<polygon fill="none" stroke="black" stroke-dasharray="1,5" points="716,-146 716,-412 1123,-412 1123,-146 716,-146"/>
</g>
<g id="clust2" class="cluster">
<title>cluster_AppModule_declarations</title>
<polygon fill="none" stroke="black" points="993,-222 993,-274 1115,-274 1115,-222 993,-222"/>
</g>
<g id="clust4" class="cluster">
<title>cluster_AppModule_imports</title>
<polygon fill="none" stroke="black" points="724,-154 724,-274 985,-274 985,-154 724,-154"/>
</g>
<g id="clust6" class="cluster">
<title>cluster_AppModule_bootstrap</title>
<polygon fill="none" stroke="black" points="765,-352 765,-404 889,-404 889,-352 765,-352"/>
</g>
<g id="clust14" class="cluster">
<title>cluster_AuthModule</title>
<polygon fill="none" stroke="black" stroke-dasharray="1,5" points="1599,-146 1599,-214 2047,-214 2047,-146 1599,-146"/>
</g>
<g id="clust15" class="cluster">
<title>cluster_AuthModule_declarations</title>
<polygon fill="none" stroke="black" points="1763,-154 1763,-206 2039,-206 2039,-154 1763,-154"/>
</g>
<g id="clust18" class="cluster">
<title>cluster_AuthModule_imports</title>
<polygon fill="none" stroke="black" points="1607,-154 1607,-206 1755,-206 1755,-154 1607,-154"/>
</g>
<g id="clust28" class="cluster">
<title>cluster_CatalogueModule</title>
<polygon fill="none" stroke="black" stroke-dasharray="1,5" points="8,-146 8,-274 708,-274 708,-146 8,-146"/>
</g>
<g id="clust29" class="cluster">
<title>cluster_CatalogueModule_declarations</title>
<polygon fill="none" stroke="black" points="386,-154 386,-206 700,-206 700,-154 386,-154"/>
</g>
<g id="clust32" class="cluster">
<title>cluster_CatalogueModule_imports</title>
<polygon fill="none" stroke="black" points="200,-154 200,-206 378,-206 378,-154 200,-154"/>
</g>
<g id="clust35" class="cluster">
<title>cluster_CatalogueModule_providers</title>
<polygon fill="none" stroke="black" points="16,-154 16,-206 192,-206 192,-154 16,-154"/>
</g>
<g id="clust42" class="cluster">
<title>cluster_SharedModule</title>
<polygon fill="none" stroke="black" stroke-dasharray="1,5" points="692,-70 692,-138 1144,-138 1144,-70 692,-70"/>
</g>
<g id="clust43" class="cluster">
<title>cluster_SharedModule_declarations</title>
<polygon fill="none" stroke="black" points="856,-78 856,-130 1136,-130 1136,-78 856,-78"/>
</g>
<g id="clust47" class="cluster">
<title>cluster_SharedModule_exports</title>
<polygon fill="none" stroke="black" points="700,-78 700,-130 848,-130 848,-78 700,-78"/>
</g>
<g id="clust50" class="cluster">
<title>cluster_ShellModule</title>
<polygon fill="none" stroke="black" stroke-dasharray="1,5" points="1131,-146 1131,-214 1591,-214 1591,-146 1131,-146"/>
</g>
<g id="clust51" class="cluster">
<title>cluster_ShellModule_declarations</title>
<polygon fill="none" stroke="black" points="1289,-154 1289,-206 1583,-206 1583,-154 1289,-154"/>
</g>
<g id="clust55" class="cluster">
<title>cluster_ShellModule_exports</title>
<polygon fill="none" stroke="black" points="1139,-154 1139,-206 1281,-206 1281,-154 1139,-154"/>
</g>
<!-- AppComponent -->
<g id="node1" class="node">
<title>AppComponent</title>
<polygon fill="#ffffb3" stroke="black" points="1106.94,-266 1001.06,-266 1001.06,-230 1106.94,-230 1106.94,-266"/>
<text text-anchor="middle" x="1054" y="-243.8" font-family="Times,serif" font-size="14.00">AppComponent</text>
</g>
<!-- AppModule -->
<g id="node2" class="node">
<title>AppModule</title>
<polygon fill="#8dd3c7" stroke="black" points="868.66,-331 865.66,-335 844.66,-335 841.66,-331 785.34,-331 785.34,-295 868.66,-295 868.66,-331"/>
<text text-anchor="middle" x="827" y="-308.8" font-family="Times,serif" font-size="14.00">AppModule</text>
</g>
<!-- AppComponent&#45;&gt;AppModule -->
<g id="edge1" class="edge">
<title>AppComponent&#45;&gt;AppModule</title>
<path fill="none" stroke="black" d="M1054,-266.29C1054,-288.21 1054,-322 1054,-322 1054,-322 878.9,-322 878.9,-322"/>
<polygon fill="black" stroke="black" points="878.9,-318.5 868.9,-322 878.9,-325.5 878.9,-318.5"/>
</g>
<!-- AppComponent  -->
<g id="node7" class="node">
<title>AppComponent </title>
<polygon fill="#80b1d3" stroke="black" points="881.44,-396 772.56,-396 772.56,-360 881.44,-360 881.44,-396"/>
<text text-anchor="middle" x="827" y="-373.8" font-family="Times,serif" font-size="14.00">AppComponent </text>
</g>
<!-- AppModule&#45;&gt;AppComponent  -->
<g id="edge6" class="edge">
<title>AppModule&#45;&gt;AppComponent </title>
<path fill="none" stroke="black" stroke-dasharray="1,5" d="M827,-331.11C827,-331.11 827,-349.99 827,-349.99"/>
<polygon fill="black" stroke="black" points="823.5,-349.99 827,-359.99 830.5,-349.99 823.5,-349.99"/>
</g>
<!-- AppRoutingModule -->
<g id="node3" class="node">
<title>AppRoutingModule</title>
<polygon fill="#8dd3c7" stroke="black" points="860.27,-198 857.27,-202 836.27,-202 833.27,-198 731.73,-198 731.73,-162 860.27,-162 860.27,-198"/>
<text text-anchor="middle" x="796" y="-175.8" font-family="Times,serif" font-size="14.00">AppRoutingModule</text>
</g>
<!-- AppRoutingModule&#45;&gt;AppModule -->
<g id="edge2" class="edge">
<title>AppRoutingModule&#45;&gt;AppModule</title>
<path fill="none" stroke="black" d="M777.68,-198.21C777.68,-234.64 777.68,-313 777.68,-313 777.68,-313 778.41,-313 778.41,-313"/>
<polygon fill="black" stroke="black" points="774.96,-316.5 784.96,-313 774.96,-309.5 774.96,-316.5"/>
</g>
<!-- AuthModule -->
<g id="node4" class="node">
<title>AuthModule</title>
<polygon fill="#8dd3c7" stroke="black" points="976.55,-266 973.55,-270 952.55,-270 949.55,-266 889.45,-266 889.45,-230 976.55,-230 976.55,-266"/>
<text text-anchor="middle" x="933" y="-243.8" font-family="Times,serif" font-size="14.00">AuthModule</text>
</g>
<!-- AuthModule&#45;&gt;AppModule -->
<g id="edge3" class="edge">
<title>AuthModule&#45;&gt;AppModule</title>
<path fill="none" stroke="black" d="M933,-266.11C933,-285.34 933,-313 933,-313 933,-313 878.89,-313 878.89,-313"/>
<polygon fill="black" stroke="black" points="878.89,-309.5 868.89,-313 878.89,-316.5 878.89,-309.5"/>
</g>
<!-- SharedModule -->
<g id="node5" class="node">
<title>SharedModule</title>
<polygon fill="#8dd3c7" stroke="black" points="977.42,-198 974.42,-202 953.42,-202 950.42,-198 878.58,-198 878.58,-162 977.42,-162 977.42,-198"/>
<text text-anchor="middle" x="928" y="-175.8" font-family="Times,serif" font-size="14.00">SharedModule</text>
</g>
<!-- SharedModule&#45;&gt;AppModule -->
<g id="edge4" class="edge">
<title>SharedModule&#45;&gt;AppModule</title>
<path fill="none" stroke="black" d="M886.64,-198.03C886.64,-232.42 886.64,-304 886.64,-304 886.64,-304 878.75,-304 878.75,-304"/>
<polygon fill="black" stroke="black" points="878.75,-300.5 868.75,-304 878.75,-307.5 878.75,-300.5"/>
</g>
<!-- SharedModule&#45;&gt;AuthModule -->
<g id="edge10" class="edge">
<title>SharedModule&#45;&gt;AuthModule</title>
<path fill="none" stroke="black" d="M906.74,-198.22C906.74,-198.22 906.74,-219.73 906.74,-219.73"/>
<polygon fill="black" stroke="black" points="903.24,-219.73 906.74,-229.73 910.24,-219.73 903.24,-219.73"/>
</g>
<!-- ShellModule -->
<g id="node6" class="node">
<title>ShellModule</title>
<polygon fill="#8dd3c7" stroke="black" points="871.33,-266 868.33,-270 847.33,-270 844.33,-266 782.67,-266 782.67,-230 871.33,-230 871.33,-266"/>
<text text-anchor="middle" x="827" y="-243.8" font-family="Times,serif" font-size="14.00">ShellModule</text>
</g>
<!-- SharedModule&#45;&gt;ShellModule -->
<g id="edge21" class="edge">
<title>SharedModule&#45;&gt;ShellModule</title>
<path fill="none" stroke="black" d="M878.56,-180C872.71,-180 868.78,-180 868.78,-180 868.78,-180 868.78,-219.78 868.78,-219.78"/>
<polygon fill="black" stroke="black" points="865.28,-219.78 868.78,-229.78 872.28,-219.78 865.28,-219.78"/>
</g>
<!-- CatalogueModule -->
<g id="node13" class="node">
<title>CatalogueModule</title>
<polygon fill="#8dd3c7" stroke="black" points="521.31,-266 518.31,-270 497.31,-270 494.31,-266 404.69,-266 404.69,-230 521.31,-230 521.31,-266"/>
<text text-anchor="middle" x="463" y="-243.8" font-family="Times,serif" font-size="14.00">CatalogueModule</text>
</g>
<!-- SharedModule&#45;&gt;CatalogueModule -->
<g id="edge14" class="edge">
<title>SharedModule&#45;&gt;CatalogueModule</title>
<path fill="none" stroke="black" d="M884.06,-198.17C884.06,-200.45 884.06,-202 884.06,-202 884.06,-202 482.39,-202 482.39,-202 482.39,-202 482.39,-219.82 482.39,-219.82"/>
<polygon fill="black" stroke="black" points="478.89,-219.82 482.39,-229.82 485.89,-219.82 478.89,-219.82"/>
</g>
<!-- LoadingComponent  -->
<g id="node18" class="node">
<title>LoadingComponent </title>
<polygon fill="#fb8072" stroke="black" points="839.99,-122 708.01,-122 708.01,-86 839.99,-86 839.99,-122"/>
<text text-anchor="middle" x="774" y="-99.8" font-family="Times,serif" font-size="14.00">LoadingComponent </text>
</g>
<!-- SharedModule&#45;&gt;LoadingComponent  -->
<g id="edge18" class="edge">
<title>SharedModule&#45;&gt;LoadingComponent </title>
<path fill="none" stroke="black" stroke-dasharray="5,2" d="M911.6,-161.89C911.6,-152.1 911.6,-142 911.6,-142 911.6,-142 785.68,-142 785.68,-142 785.68,-142 785.68,-132.11 785.68,-132.11"/>
<polygon fill="black" stroke="black" points="789.18,-132.11 785.68,-122.11 782.18,-132.11 789.18,-132.11"/>
</g>
<!-- ShellModule&#45;&gt;AppModule -->
<g id="edge5" class="edge">
<title>ShellModule&#45;&gt;AppModule</title>
<path fill="none" stroke="black" d="M827,-266.11C827,-266.11 827,-284.99 827,-284.99"/>
<polygon fill="black" stroke="black" points="823.5,-284.99 827,-294.99 830.5,-284.99 823.5,-284.99"/>
</g>
<!-- HeaderComponent  -->
<g id="node21" class="node">
<title>HeaderComponent </title>
<polygon fill="#fb8072" stroke="black" points="1272.74,-198 1147.26,-198 1147.26,-162 1272.74,-162 1272.74,-198"/>
<text text-anchor="middle" x="1210" y="-175.8" font-family="Times,serif" font-size="14.00">HeaderComponent </text>
</g>
<!-- ShellModule&#45;&gt;HeaderComponent  -->
<g id="edge22" class="edge">
<title>ShellModule&#45;&gt;HeaderComponent </title>
<path fill="none" stroke="black" stroke-dasharray="5,2" d="M866.39,-229.81C866.39,-221.72 866.39,-214 866.39,-214 866.39,-214 1210,-214 1210,-214 1210,-214 1210,-208.19 1210,-208.19"/>
<polygon fill="black" stroke="black" points="1213.5,-208.19 1210,-198.19 1206.5,-208.19 1213.5,-208.19"/>
</g>
<!-- SignInComponent -->
<g id="node8" class="node">
<title>SignInComponent</title>
<polygon fill="#ffffb3" stroke="black" points="2031.17,-198 1912.83,-198 1912.83,-162 2031.17,-162 2031.17,-198"/>
<text text-anchor="middle" x="1972" y="-175.8" font-family="Times,serif" font-size="14.00">SignInComponent</text>
</g>
<!-- SignInComponent&#45;&gt;AuthModule -->
<g id="edge7" class="edge">
<title>SignInComponent&#45;&gt;AuthModule</title>
<path fill="none" stroke="black" d="M1972,-198.18C1972,-211.04 1972,-226 1972,-226 1972,-226 959.26,-226 959.26,-226 959.26,-226 959.26,-226.38 959.26,-226.38"/>
<polygon fill="black" stroke="black" points="955.76,-219.83 959.26,-229.83 962.76,-219.83 955.76,-219.83"/>
</g>
<!-- SignUpComponent -->
<g id="node9" class="node">
<title>SignUpComponent</title>
<polygon fill="#ffffb3" stroke="black" points="1895.11,-198 1770.89,-198 1770.89,-162 1895.11,-162 1895.11,-198"/>
<text text-anchor="middle" x="1833" y="-175.8" font-family="Times,serif" font-size="14.00">SignUpComponent</text>
</g>
<!-- SignUpComponent&#45;&gt;AuthModule -->
<g id="edge8" class="edge">
<title>SignUpComponent&#45;&gt;AuthModule</title>
<path fill="none" stroke="black" d="M1833,-198.06C1833,-209.44 1833,-222 1833,-222 1833,-222 941.75,-222 941.75,-222 941.75,-222 941.75,-222.79 941.75,-222.79"/>
<polygon fill="black" stroke="black" points="938.25,-219.94 941.75,-229.94 945.25,-219.94 938.25,-219.94"/>
</g>
<!-- AuthRoutingModule -->
<g id="node10" class="node">
<title>AuthRoutingModule</title>
<polygon fill="#8dd3c7" stroke="black" points="1747.17,-198 1744.17,-202 1723.17,-202 1720.17,-198 1614.83,-198 1614.83,-162 1747.17,-162 1747.17,-198"/>
<text text-anchor="middle" x="1681" y="-175.8" font-family="Times,serif" font-size="14.00">AuthRoutingModule</text>
</g>
<!-- AuthRoutingModule&#45;&gt;AuthModule -->
<g id="edge9" class="edge">
<title>AuthRoutingModule&#45;&gt;AuthModule</title>
<path fill="none" stroke="black" d="M1681,-198.11C1681,-207.9 1681,-218 1681,-218 1681,-218 924.25,-218 924.25,-218 924.25,-218 924.25,-219.86 924.25,-219.86"/>
<polygon fill="black" stroke="black" points="920.75,-219.86 924.25,-229.86 927.75,-219.86 920.75,-219.86"/>
</g>
<!-- AddMovieComponent -->
<g id="node11" class="node">
<title>AddMovieComponent</title>
<polygon fill="#ffffb3" stroke="black" points="691.99,-198 550.01,-198 550.01,-162 691.99,-162 691.99,-198"/>
<text text-anchor="middle" x="621" y="-175.8" font-family="Times,serif" font-size="14.00">AddMovieComponent</text>
</g>
<!-- AddMovieComponent&#45;&gt;CatalogueModule -->
<g id="edge11" class="edge">
<title>AddMovieComponent&#45;&gt;CatalogueModule</title>
<path fill="none" stroke="black" d="M621,-198.22C621,-218.37 621,-248 621,-248 621,-248 531.38,-248 531.38,-248"/>
<polygon fill="black" stroke="black" points="531.38,-244.5 521.38,-248 531.38,-251.5 531.38,-244.5"/>
</g>
<!-- CatalogueComponent -->
<g id="node12" class="node">
<title>CatalogueComponent</title>
<polygon fill="#ffffb3" stroke="black" points="532.09,-198 393.91,-198 393.91,-162 532.09,-162 532.09,-198"/>
<text text-anchor="middle" x="463" y="-175.8" font-family="Times,serif" font-size="14.00">CatalogueComponent</text>
</g>
<!-- CatalogueComponent&#45;&gt;CatalogueModule -->
<g id="edge12" class="edge">
<title>CatalogueComponent&#45;&gt;CatalogueModule</title>
<path fill="none" stroke="black" d="M443.61,-198.22C443.61,-198.22 443.61,-219.73 443.61,-219.73"/>
<polygon fill="black" stroke="black" points="440.11,-219.73 443.61,-229.73 447.11,-219.73 440.11,-219.73"/>
</g>
<!-- CatalogueRoutingModule -->
<g id="node14" class="node">
<title>CatalogueRoutingModule</title>
<polygon fill="#8dd3c7" stroke="black" points="369.93,-198 366.93,-202 345.93,-202 342.93,-198 208.07,-198 208.07,-162 369.93,-162 369.93,-198"/>
<text text-anchor="middle" x="289" y="-175.8" font-family="Times,serif" font-size="14.00">CatalogueRoutingModule</text>
</g>
<!-- CatalogueRoutingModule&#45;&gt;CatalogueModule -->
<g id="edge13" class="edge">
<title>CatalogueRoutingModule&#45;&gt;CatalogueModule</title>
<path fill="none" stroke="black" d="M289,-198.27C289,-216.56 289,-242 289,-242 289,-242 394.58,-242 394.58,-242"/>
<polygon fill="black" stroke="black" points="394.58,-245.5 404.58,-242 394.58,-238.5 394.58,-245.5"/>
</g>
<!-- MovieApiService -->
<g id="node15" class="node">
<title>MovieApiService</title>
<ellipse fill="#fdb462" stroke="black" cx="104" cy="-180" rx="79.87" ry="18"/>
<text text-anchor="middle" x="104" y="-175.8" font-family="Times,serif" font-size="14.00">MovieApiService</text>
</g>
<!-- MovieApiService&#45;&gt;CatalogueModule -->
<g id="edge15" class="edge">
<title>MovieApiService&#45;&gt;CatalogueModule</title>
<path fill="none" stroke="black" d="M104,-198.29C104,-220.21 104,-254 104,-254 104,-254 394.52,-254 394.52,-254"/>
<polygon fill="black" stroke="black" points="394.52,-257.5 404.52,-254 394.52,-250.5 394.52,-257.5"/>
</g>
<!-- LoadingComponent -->
<g id="node16" class="node">
<title>LoadingComponent</title>
<polygon fill="#ffffb3" stroke="black" points="991.99,-122 864.01,-122 864.01,-86 991.99,-86 991.99,-122"/>
<text text-anchor="middle" x="928" y="-99.8" font-family="Times,serif" font-size="14.00">LoadingComponent</text>
</g>
<!-- LoadingComponent&#45;&gt;SharedModule -->
<g id="edge16" class="edge">
<title>LoadingComponent&#45;&gt;SharedModule</title>
<path fill="none" stroke="black" d="M944.4,-122.01C944.4,-122.01 944.4,-151.85 944.4,-151.85"/>
<polygon fill="black" stroke="black" points="940.9,-151.85 944.4,-161.85 947.9,-151.85 940.9,-151.85"/>
</g>
<!-- SpinerComponent -->
<g id="node17" class="node">
<title>SpinerComponent</title>
<polygon fill="#ffffb3" stroke="black" points="1127.88,-122 1010.12,-122 1010.12,-86 1127.88,-86 1127.88,-122"/>
<text text-anchor="middle" x="1069" y="-99.8" font-family="Times,serif" font-size="14.00">SpinerComponent</text>
</g>
<!-- SpinerComponent&#45;&gt;SharedModule -->
<g id="edge17" class="edge">
<title>SpinerComponent&#45;&gt;SharedModule</title>
<path fill="none" stroke="black" d="M1058.39,-122.01C1058.39,-144.49 1058.39,-180 1058.39,-180 1058.39,-180 987.29,-180 987.29,-180"/>
<polygon fill="black" stroke="black" points="987.29,-176.5 977.29,-180 987.29,-183.5 987.29,-176.5"/>
</g>
<!-- HeaderComponent -->
<g id="node19" class="node">
<title>HeaderComponent</title>
<polygon fill="#ffffb3" stroke="black" points="1574.74,-198 1453.26,-198 1453.26,-162 1574.74,-162 1574.74,-198"/>
<text text-anchor="middle" x="1514" y="-175.8" font-family="Times,serif" font-size="14.00">HeaderComponent</text>
</g>
<!-- HeaderComponent&#45;&gt;ShellModule -->
<g id="edge19" class="edge">
<title>HeaderComponent&#45;&gt;ShellModule</title>
<path fill="none" stroke="black" d="M1514,-198.14C1514,-204.46 1514,-210 1514,-210 1514,-210 834.54,-210 834.54,-210 834.54,-210 834.54,-219.89 834.54,-219.89"/>
<polygon fill="black" stroke="black" points="831.04,-219.89 834.54,-229.89 838.04,-219.89 831.04,-219.89"/>
</g>
<!-- NotFoundComponent -->
<g id="node20" class="node">
<title>NotFoundComponent</title>
<polygon fill="#ffffb3" stroke="black" points="1435.11,-198 1296.89,-198 1296.89,-162 1435.11,-162 1435.11,-198"/>
<text text-anchor="middle" x="1366" y="-175.8" font-family="Times,serif" font-size="14.00">NotFoundComponent</text>
</g>
<!-- NotFoundComponent&#45;&gt;ShellModule -->
<g id="edge20" class="edge">
<title>NotFoundComponent&#45;&gt;ShellModule</title>
<path fill="none" stroke="black" d="M1366,-198.06C1366,-202.49 1366,-206 1366,-206 1366,-206 808.69,-206 808.69,-206 808.69,-206 808.69,-219.94 808.69,-219.94"/>
<polygon fill="black" stroke="black" points="805.19,-219.94 808.69,-229.94 812.19,-219.94 805.19,-219.94"/>
</g>
</g>
</svg>
